{
  "accessors": [
    {
      "bufferView": 2,
      "componentType": 5126,
      "count": 251,
      "max": [
        1.0,
        1.0,
        1.0000001192092896
      ],
      "min": [
        -1.000000238418579,
        -0.15643437206745148,
        -1.0000004768371582
      ],
      "type": "VEC3"
    },
    {
      "bufferView": 2,
      "byteOffset": 3012,
      "componentType": 5126,
      "count": 251,
      "max": [
        1.0,
        0.07845931500196457,
        1.0
      ],
      "min": [
        -1.0,
        -1.0,
        -1.0
      ],
      "type": "VEC3"
    },
    {
      "bufferView": 1,
      "componentType": 5126,
      "count": 251,
      "max": [
        1.0000001192092896,
        1.0
      ],
      "min": [
        0.0,
        0.4500000476837158
      ],
      "type": "VEC2"
    },
    {
      "bufferView": 0,
      "componentType": 5125,
      "count": 1260,
      "type": "SCALAR"
    },
    {
      "bufferView": 2,
      "byteOffset": 6024,
      "componentType": 5126,
      "count": 507,
      "max": [
        39.06856918334961,
        18.536972045898438,
        39.068572998046875
      ],
      "min": [
        -39.06857681274414,
        -6.943473815917969,
        -39.06858825683594
      ],
      "type": "VEC3"
    },
    {
      "bufferView": 2,
      "byteOffset": 12108,
      "componentType": 5126,
      "count": 507,
      "max": [
        0.9968927502632141,
        0.9999276399612427,
        1.0
      ],
      "min": [
        -0.9923895597457886,
        -0.4454227089881897,
        -1.0
      ],
      "type": "VEC3"
    },
    {
      "bufferView": 1,
      "byteOffset": 2008,
      "componentType": 5126,
      "count": 507,
      "max": [
        0.9907405972480774,
        1.0
      ],
      "min": [
        0.0,
        0.0
      ],
      "type": "VEC2"
    },
    {
      "bufferView": 0,
      "byteOffset": 5040,
      "componentType": 5125,
      "count": 1320,
      "type": "SCALAR"
    },
    {
      "bufferView": 2,
      "byteOffset": 18192,
      "componentType": 5126,
      "count": 418,
      "max": [
        13.771231651306152,
        15.222723960876465,
        11.624763488769531
      ],
      "min": [
        -12.927128791809082,
        -5.204988956451416,
        -11.624763488769531
      ],
      "type": "VEC3"
    },
    {
      "bufferView": 2,
      "byteOffset": 23208,
      "componentType": 5126,
      "count": 418,
      "max": [
        0.985705554485321,
        1.0,
        0.9236411452293396
      ],
      "min": [
        -0.9911035299301147,
        -0.8187620043754578,
        -0.991845428943634
      ],
      "type": "VEC3"
    },
    {
      "bufferView": 1,
      "byteOffset": 6064,
      "componentType": 5126,
      "count": 418,
      "max": [
        0.9964257478713989,
        1.0
      ],
      "min": [
        0.0,
        0.0
      ],
      "type": "VEC2"
    },
    {
      "bufferView": 0,
      "byteOffset": 10320,
      "componentType": 5125,
      "count": 1152,
      "type": "SCALAR"
    },
    {
      "bufferView": 2,
      "byteOffset": 28224,
      "componentType": 5126,
      "count": 121,
      "max": [
        25.11839485168457,
        -1.045727014541626,
        25.11839485168457
      ],
      "min": [
        -25.11839485168457,
        -3.545469045639038,
        -25.11839485168457
      ],
      "type": "VEC3"
    },
    {
      "bufferView": 2,
      "byteOffset": 29676,
      "componentType": 5126,
      "count": 121,
      "max": [
        0.1563601791858673,
        1.0,
        0.12719906866550446
      ],
      "min": [
        -0.248439759016037,
        0.9686473608016968,
        -0.12532301247119904
      ],
      "type": "VEC3"
    },
    {
      "bufferView": 1,
      "byteOffset": 9408,
      "componentType": 5126,
      "count": 121,
      "max": [
        0.9671998023986816,
        0.9643967151641846
      ],
      "min": [
        0.03234684467315674,
        0.03557649254798889
      ],
      "type": "VEC2"
    },
    {
      "bufferView": 0,
      "byteOffset": 14928,
      "componentType": 5125,
      "count": 600,
      "type": "SCALAR"
    }
  ],
  "asset": {
    "extras": {
      "author": "Umar (https://sketchfab.com/123umar123)",
      "license": "CC-BY-4.0 (http://creativecommons.org/licenses/by/4.0/)",
      "source": "https://sketchfab.com/3d-models/low-poly-lava-fighting-arenastage-6c9918fa61014829ab10048aa6c3171b",
      "title": "Low Poly Lava Fighting Arena/Stage"
    },
    "generator": "Sketchfab-16.73.0",
    "version": "2.0"
  },
  "bufferViews": [
    {
      "buffer": 0,
      "byteLength": 17328,
      "name": "floatBufferViews",
      "target": 34963
    },
    {
      "buffer": 0,
      "byteLength": 10376,
      "byteOffset": 17328,
      "byteStride": 8,
      "name": "floatBufferViews",
      "target": 34962
    },
    {
      "buffer": 0,
      "byteLength": 31128,
      "byteOffset": 27704,
      "byteStride": 12,
      "name": "floatBufferViews",
      "target": 34962
    }
  ],
  "buffers": [
    {
      "byteLength": 58832,
      "uri": "scene.bin"
    }
  ],
  "extensionsUsed": [
    "KHR_materials_emissive_strength"
  ],
  "images": [
    {
      "uri": "textures/Sky01_baseColor.png"
    },
    {
      "uri": "textures/lambert1_baseColor.png"
    },
    {
      "uri": "textures/lambert1_emissive.png"
    },
    {
      "uri": "textures/Main_Base_baseColor.png"
    },
    {
      "uri": "textures/Main_Base_emissive.png"
    },
    {
      "uri": "textures/Bottom_Main_baseColor.png"
    }
  ],
  "materials": [
    {
      "doubleSided": true,
      "emissiveFactor": [
        0.2352736182502006,
        0.2352736182502006,
        0.2352736182502006
      ],
      "emissiveTexture": {
        "index": 0
      },
      "name": "Sky01",
      "pbrMetallicRoughness": {
        "baseColorTexture": {
          "index": 0
        },
        "metallicFactor": 0.0,
        "roughnessFactor": 0.6
      }
    },
    {
      "doubleSided": true,
      "emissiveFactor": [
        1.0,
        1.0,
        1.0
      ],
      "emissiveTexture": {
        "index": 2
      },
      "extensions": {
        "KHR_materials_emissive_strength": {
          "emissiveStrength": 1.696736664548132
        }
      },
      "name": "lambert1",
      "pbrMetallicRoughness": {
        "baseColorTexture": {
          "index": 1
        },
        "metallicFactor": 0.0,
        "roughnessFactor": 0.6
      }
    },
    {
      "doubleSided": true,
      "emissiveFactor": [
        1.0,
        1.0,
        1.0
      ],
      "emissiveTexture": {
        "index": 4
      },
      "extensions": {
        "KHR_materials_emissive_strength": {
          "emissiveStrength": 1.7576309581438792
        }
      },
      "name": "Main_Base",
      "pbrMetallicRoughness": {
        "baseColorTexture": {
          "index": 3
        },
        "metallicFactor": 0.0,
        "roughnessFactor": 0.6
      }
    },
    {
      "doubleSided": true,
      "name": "Bottom_Main",
      "pbrMetallicRoughness": {
        "baseColorTexture": {
          "index": 5
        },
        "metallicFactor": 0.0,
        "roughnessFactor": 0.6
      }
    }
  ],
  "meshes": [
    {
      "name": "sky_Sky01_0",
      "primitives": [
        {
          "attributes": {
            "NORMAL": 1,
            "POSITION": 0,
            "TEXCOORD_0": 2
          },
          "indices": 3,
          "material": 0,
          "mode": 4
        }
      ]
    },
    {
      "name": "Outer_lambert1_0",
      "primitives": [
        {
          "attributes": {
            "NORMAL": 5,
            "POSITION": 4,
            "TEXCOORD_0": 6
          },
          "indices": 7,
          "material": 1,
          "mode": 4
        }
      ]
    },
    {
      "name": "base_Main_Base_0",
      "primitives": [
        {
          "attributes": {
            "NORMAL": 9,
            "POSITION": 8,
            "TEXCOORD_0": 10
          },
          "indices": 11,
          "material": 2,
          "mode": 4
        }
      ]
    },
    {
      "name": "lower_Bottom_Main__0",
      "primitives": [
        {
          "attributes": {
            "NORMAL": 13,
            "POSITION": 12,
            "TEXCOORD_0": 14
          },
          "indices": 15,
          "material": 3,
          "mode": 4
        }
      ]
    }
  ],
  "nodes": [
    {
      "children": [
        1
      ],
      "matrix": [
        1.0,
        0.0,
        0.0,
        0.0,
        0.0,
        2.220446049250313e-16,
        -1.0,
        0.0,
        0.0,
        1.0,
        2.220446049250313e-16,
        0.0,
        0.0,
        0.0,
        0.0,
        1.0
      ],
      "name": "Sketchfab_model"
    },
    {
      "children": [
        2
      ],
      "matrix": [
        0.009999999776482582,
        0.0,
        0.0,
        0.0,
        0.0,
        0.0,
        0.009999999776482582,
        0.0,
        0.0,
        -0.009999999776482582,
        0.0,
        0.0,
        0.0,
        0.0,
        0.0,
        1.0
      ],
      "name": "227c37ce05fb4ff2802e84f1ce5dced1.fbx"
    },
    {
      "children": [
        3
      ],
      "name": "RootNode"
    },
    {
      "children": [
        4,
        6,
        8,
        10
      ],
      "name": "Stage_05"
    },
    {
      "children": [
        5
      ],
      "matrix": [
        62.415157318115234,
        0.0,
        0.0,
        0.0,
        0.0,
        62.415157318115234,
        0.0,
        0.0,
        0.0,
        0.0,
        62.415157318115234,
        0.0,
        0.0,
        0.0,
        0.0,
        1.0
      ],
      "name": "sky"
    },
    {
      "mesh": 0,
      "name": "sky_Sky01_0"
    },
    {
      "children": [
        7
      ],
      "name": "Outer"
    },
    {
      "mesh": 1,
      "name": "Outer_lambert1_0"
    },
    {
      "children": [
        9
      ],
      "name": "base"
    },
    {
      "mesh": 2,
      "name": "base_Main_Base_0"
    },
    {
      "children": [
        11
      ],
      "name": "lower"
    },
    {
      "mesh": 3,
      "name": "lower_Bottom_Main__0"
    }
  ],
  "samplers": [
    {
      "magFilter": 9729,
      "minFilter": 9987,
      "wrapS": 10497,
      "wrapT": 10497
    }
  ],
  "scene": 0,
  "scenes": [
    {
      "name": "Sketchfab_Scene",
      "nodes": [
        0
      ]
    }
  ],
  "textures": [
    {
      "sampler": 0,
      "source": 0
    },
    {
      "sampler": 0,
      "source": 1
    },
    {
      "sampler": 0,
      "source": 2
    },
    {
      "sampler": 0,
      "source": 3
    },
    {
      "sampler": 0,
      "source": 4
    },
    {
      "sampler": 0,
      "source": 5
    }
  ]
}
